<svg width="135" height="20" viewBox="0 0 135 20" fill="none" xmlns="http://www.w3.org/2000/svg">
<path d="M0.9375 9.9375C0.9375 7.375 1.67188 5.39844 3.14062 4.00781C4.60938 2.60156 6.45312 1.89844 8.67188 1.89844C10.6875 1.89844 12.2812 2.40625 13.4531 3.42188C14.625 4.42187 15.2109 5.60938 15.2109 6.98438H12.9375C12.9375 6.17188 12.5547 5.41406 11.7891 4.71094C11.0391 4.00781 10.0078 3.65625 8.69531 3.65625C7.16406 3.65625 5.84375 4.21875 4.73438 5.34375C3.625 6.45312 3.07031 7.98438 3.07031 9.9375C3.07031 11.9062 3.63281 13.4922 4.75781 14.6953C5.88281 15.8828 7.19531 16.4766 8.69531 16.4766C9.99219 16.4766 11.0312 16.0859 11.8125 15.3047C12.6094 14.5234 13.0078 13.7266 13.0078 12.9141H15.2344C15.2344 14.3047 14.6406 15.5391 13.4531 16.6172C12.2656 17.6953 10.6719 18.2344 8.67188 18.2344C6.46875 18.2344 4.625 17.5 3.14062 16.0312C1.67188 14.5469 0.9375 12.5156 0.9375 9.9375Z" fill="#2A3033"/>
<path d="M18 1L33 9.59091M18 1V19M18 1L23.6757 9.59091M33 9.59091L18 19M33 9.59091H23.6757M18 19L23.6757 9.59091" stroke="#2A3033"/>
<path d="M36.6406 18V2.13281H46.25V4.00781H38.6328V9.14062H45.3125V11.0156H38.6328V18H36.6406ZM48.3594 18V2.13281H58.6719V4.00781H50.3516V8.67188H57.2656V10.5469H50.3516V16.125H58.6719V18H48.3594ZM61.25 18V2.13281H63.2422V8.67188H71.5625V2.13281H73.5547V18H71.5625V10.5469H63.2422V18H61.25ZM76.6016 11.9062V2.13281H78.5938V11.9062C78.5938 13.6094 78.9375 14.7969 79.625 15.4688C80.3125 16.125 81.2812 16.4531 82.5312 16.4531C83.7812 16.4531 84.75 16.125 85.4375 15.4688C86.125 14.7969 86.4688 13.6094 86.4688 11.9062V2.13281H88.4609V11.9062C88.4609 14.1094 87.9219 15.7188 86.8438 16.7344C85.7812 17.7344 84.3359 18.2344 82.5078 18.2344C80.6953 18.2344 79.2578 17.7344 78.1953 16.7344C77.1328 15.7188 76.6016 14.1094 76.6016 11.9062ZM91.5078 18V2.13281H93.6172L102.289 15.0469V2.13281H104.281V18H102.172L93.5 5.10938V18H91.5078ZM106.391 4.00781V2.13281H118.227V4.00781H113.305V18H111.312V4.00781H106.391Z" fill="#2A3033"/>
</svg>
